<?xml version="1.0" encoding="UTF-8"?>
<svg id="Layer_2" data-name="Layer 2" xmlns="http://www.w3.org/2000/svg" viewBox="0 0 1570.54 1570.54">
  <defs>
    <style>
      .cls-1 {
        fill: #070707;
      }

      .cls-2 {
        fill: #fefefe;
      }
    </style>
  </defs>
  <g id="Layer_1-2" data-name="Layer 1">
    <rect class="cls-1" width="1570.54" height="1570.54" rx="290.12" ry="290.12"/>
    <g>
      <path class="cls-2" d="m947.11,1131.57c-24.06,0-48.12-.13-72.18.12-4.24.05-6.75-1.36-9.3-4.52-18.25-22.63-36.62-45.16-55.05-67.64-14.96-18.26-30.05-36.41-45.08-54.62-.42-.51-.82-1.02-1.26-1.51-2.48-2.79-2.51-2.82-4.78-.12-6.04,7.2-12.06,14.41-18.07,21.65-28.75,34.65-57.52,69.29-86.18,104.01-1.88,2.27-3.75,2.93-6.62,2.92-47.9-.09-95.81-.03-143.71-.06-2.13,0-4.25-.43-6.38-.67,1.17-1.74,2.21-3.58,3.54-5.19,43.06-52.33,86.15-104.63,129.21-156.95,16.25-19.75,32.44-39.55,48.64-59.33,3.31-4.04,3.33-4.1.11-7.99-17.84-21.56-35.68-43.11-53.55-64.65-15.63-18.84-31.3-37.66-46.95-56.49-3.46-4.16-3.5-4.17-7.14.24-19.49,23.59-38.95,47.22-58.45,70.8-28.83,34.87-57.74,69.69-86.53,104.6-25.03,30.36-49.91,60.84-74.92,91.21-22.24,27-44.61,53.89-66.83,80.9-1.97,2.4-3.96,3.44-7.14,3.43-48.34-.16-96.68-.18-145.02-.23-.66,0-1.33.1-1.96-.03-1.16-.23-2.29-.6-3.44-.91.51-.91.9-1.93,1.55-2.73,7.5-9.11,15.08-18.16,22.57-27.28,33.03-40.2,65.98-80.45,99.06-120.6,23.49-28.51,47.21-56.83,70.69-85.35,15.28-18.56,30.2-37.41,45.45-56,27.45-33.46,55.05-66.81,82.55-100.23,18.33-22.28,36.6-44.61,54.89-66.93,22.44-27.39,44.87-54.8,67.31-82.2.28-.34.53-.7.81-1.03,3.04-3.62,3.11-3.68,6.4.16,4.26,4.99,8.4,10.07,12.57,15.14,26.26,31.89,52.54,63.77,78.77,95.69,24.7,30.06,49.36,60.16,74.03,90.24,4.85,5.92,9.62,11.9,14.51,17.77,2.57,3.08,2.73,3.06,5.13.14,8.48-10.29,16.91-20.61,25.36-30.92,18.84-22.99,37.64-46.01,56.54-68.95,27.65-33.57,55.41-67.06,83.06-100.63,33.22-40.32,66.39-80.68,99.53-121.06,3.29-4.01,6.19-8.32,9.28-12.49-3.71-3.38-7.37-6.83-11.14-10.14-19.9-17.43-39.83-34.83-59.74-52.25-1.48-1.3-2.9-2.67-4.38-3.96-1.75-1.52-1.16-2.37.74-3.02,10.53-3.59,21.06-7.22,31.59-10.82,50.61-17.3,101.23-34.56,151.82-51.91,40.06-13.75,80.08-27.61,120.12-41.43.41-.14.84-.25,1.26-.38,3.82-1.23,3.84-1.22,3.13,3.02-1.48,8.83-2.87,17.68-4.5,26.48-4.28,23.2-8.47,46.41-13.04,69.55-8.88,45-18.03,89.94-26.99,134.92-5.08,25.49-9.97,51.02-15.05,76.51-.76,3.83-2.09,7.55-3.15,11.32-3.01-2.39-6.13-4.66-9.01-7.18-21.38-18.72-42.72-37.5-64.07-56.26-.49-.43-.98-.88-1.49-1.29-3.31-2.67-3.4-2.74-6.08.48-12.31,14.79-24.61,29.57-36.82,44.44-16.51,20.1-32.86,40.34-49.41,60.41-23.08,27.99-46.31,55.86-69.4,83.84-26.29,31.87-52.44,63.85-78.75,95.7-16.43,19.89-33.04,39.62-49.57,59.42-.7.84-1.31,1.77-2.1,2.51-1.86,1.77-1.37,3.28.11,5.05,5.46,6.54,10.82,13.17,16.24,19.75,25.58,31.04,51.23,62.02,76.73,93.12,28.97,35.33,57.81,70.76,86.72,106.15.55.68,1.14,1.33,1.69,2.01,1.12,1.39,1.09,2.35-.99,2.39-2.84.06-5.69.11-8.53.12-22.31,0-44.62,0-66.93,0,0-.09,0-.18,0-.28Z"/>
      <path class="cls-2" d="m1319.95,1131.29c-23.84,0-47.69-.14-71.53.13-4.45.05-7.1-1.52-9.77-4.76-22.92-27.85-45.96-55.61-68.99-83.37-35.88-43.23-71.81-86.42-107.67-129.67-26.37-31.81-52.65-63.69-79.04-95.48-1.86-2.25-2.66-3.54-.32-6.36,24.54-29.63,48.86-59.44,73.25-89.19,3.43-4.18,3.51-4.21,7.12.18,15,18.23,29.99,36.48,44.94,54.75,27.4,33.5,54.73,67.07,82.17,100.55,40.04,48.87,80.1,97.72,120.25,146.5,21.68,26.33,43.61,52.45,65.36,78.72,6.55,7.91,12.86,16.02,19.22,24.09.73.93,1.05,2.18,1.56,3.28-1.23.16-2.45.45-3.68.45-24.28.03-48.56.02-72.84.02v.17Z"/>
    </g>
  </g>
</svg>